<svg width="25" height="24" viewBox="0 0 25 24" fill="none" xmlns="http://www.w3.org/2000/svg">
<path d="M10.4568 2.4C6.05504 2.4 2.46957 5.9912 2.46957 10.4C2.46957 14.8088 6.05504 18.4 10.4568 18.4C12.371 18.4 14.1289 17.7192 15.5066 16.5891L20.2755 21.3656C20.3491 21.4424 20.4373 21.5037 20.5348 21.5459C20.6324 21.5882 20.7373 21.6105 20.8436 21.6116C20.9499 21.6126 21.0553 21.5925 21.1537 21.5522C21.252 21.512 21.3414 21.4525 21.4166 21.3773C21.4917 21.302 21.5511 21.2125 21.5913 21.1139C21.6314 21.0154 21.6516 20.9098 21.6505 20.8034C21.6494 20.6969 21.6271 20.5918 21.585 20.4941C21.5428 20.3964 21.4816 20.3081 21.405 20.2344L16.636 15.4578C17.7643 14.0779 18.4441 12.3172 18.4441 10.4C18.4441 5.9912 14.8586 2.4 10.4568 2.4ZM10.4568 4C13.9953 4 16.8466 6.8559 16.8466 10.4C16.8466 13.9441 13.9953 16.8 10.4568 16.8C6.91837 16.8 4.06702 13.9441 4.06702 10.4C4.06702 6.8559 6.91837 4 10.4568 4Z" fill="#DDDDDD"/>
</svg>
