<svg width="20" height="26" viewBox="0 0 20 26" fill="none" xmlns="http://www.w3.org/2000/svg">
<g clip-path="url(#clip0_295_1151)">
<path d="M11.25 1.21154C11.25 0.00294187 9.65365 -0.452566 8.95052 0.549348C2.5 9.74228 11.6667 10.1561 11.6667 14.6249C11.6667 16.4342 10.1505 17.8983 8.28906 17.8744C6.45729 17.8515 5 16.3626 5 14.5767V10.2343C5 9.1324 3.62135 8.59767 2.84219 9.39646C1.44792 10.8244 0 13.2706 0 16.2499C0 21.6261 4.48594 25.9999 10 25.9999C15.5141 25.9999 20 21.6261 20 16.2499C20 7.60236 11.25 6.44911 11.25 1.21154Z" fill="current"/>
</g>
<defs>
<clipPath id="clip0_295_1151">
<rect width="20" height="26" fill="white"/>
</clipPath>
</defs>
</svg>
