<svg width="26" height="26" viewBox="0 0 26 26" fill="none" xmlns="http://www.w3.org/2000/svg">
<path d="M13.2705 2.16666C11.7288 2.16627 10.2054 2.50134 8.80613 3.1486C7.40684 3.79586 6.16514 4.73983 5.16717 5.91499L3.69384 4.60416C3.5376 4.46713 3.34525 4.37793 3.13972 4.3472C2.93419 4.31647 2.72416 4.3455 2.53467 4.43083C2.3446 4.51627 2.18321 4.65472 2.06984 4.82957C1.95647 5.00443 1.89594 5.20827 1.89551 5.41666V9.74999C1.89551 10.0373 2.00964 10.3129 2.21281 10.516C2.41597 10.7192 2.69152 10.8333 2.97884 10.8333H7.85384C8.07207 10.8327 8.28501 10.7661 8.46479 10.6424C8.64456 10.5187 8.78278 10.3436 8.86134 10.14C8.94121 9.93367 8.95599 9.70784 8.9037 9.49287C8.85141 9.27789 8.73455 9.08408 8.56884 8.93749L6.78134 7.34499C7.58095 6.40093 8.57667 5.64245 9.69921 5.12234C10.8218 4.60223 12.0442 4.33298 13.2813 4.33333C14.8701 4.33307 16.4284 4.76955 17.7859 5.59506C19.1433 6.42058 20.2478 7.60336 20.9785 9.01414C21.7091 10.4249 22.038 12.0094 21.929 13.5944C21.82 15.1795 21.2774 16.7041 20.3606 18.0016C19.4437 19.2991 18.1878 20.3196 16.7301 20.9515C15.2724 21.5835 13.6691 21.8026 12.0953 21.5849C10.5215 21.3672 9.0378 20.7211 7.8064 19.7172C6.575 18.7133 5.64326 17.3902 5.11301 15.8925C5.01819 15.621 4.8194 15.3983 4.56037 15.2733C4.30133 15.1484 4.00327 15.1314 3.73176 15.2262C3.46024 15.3211 3.23751 15.5199 3.11257 15.7789C2.98762 16.0379 2.97069 16.336 3.06551 16.6075C3.72707 18.4808 4.89103 20.1361 6.43008 21.3924C7.96913 22.6487 9.82401 23.4575 11.7918 23.7305C13.7597 24.0036 15.7647 23.7302 17.5876 22.9403C19.4105 22.1505 20.9812 20.8745 22.1277 19.2521C23.2743 17.6296 23.9526 15.7231 24.0885 13.7411C24.2244 11.7591 23.8127 9.77783 22.8983 8.01406C21.984 6.25029 20.6022 4.77192 18.9042 3.74062C17.2061 2.70932 15.2572 2.16482 13.2705 2.16666Z" fill="#97A0A7"/>
<path d="M17.3337 17.3333C17.0993 17.3333 16.8712 17.2573 16.6837 17.1167L12.3503 13.8667C12.2158 13.7658 12.1066 13.6349 12.0314 13.4845C11.9561 13.334 11.917 13.1682 11.917 13V8.66666C11.917 8.37934 12.0311 8.10379 12.2343 7.90063C12.4375 7.69747 12.713 7.58333 13.0003 7.58333C13.2876 7.58333 13.5632 7.69747 13.7664 7.90063C13.9695 8.10379 14.0837 8.37934 14.0837 8.66666V12.4583L17.9837 15.3833C18.0975 15.4687 18.1934 15.5756 18.2658 15.698C18.3383 15.8205 18.386 15.956 18.4061 16.0968C18.4262 16.2376 18.4184 16.381 18.3831 16.5189C18.3478 16.6567 18.2857 16.7862 18.2003 16.9C18.0994 17.0345 17.9686 17.1437 17.8181 17.219C17.6677 17.2942 17.5018 17.3333 17.3337 17.3333Z" fill="#97A0A7"/>
</svg>
